<svg width="15" height="22" viewBox="0 0 15 22" fill="none" xmlns="http://www.w3.org/2000/svg">
<path d="M8.20755 6.88457V6.14165C9.23873 6.22646 10.244 6.5087 11.1686 6.97302C11.2762 7.02351 11.3947 7.04611 11.5133 7.03873C11.6319 7.03135 11.7467 6.99422 11.8472 6.93078C11.9476 6.86733 12.0305 6.7796 12.0881 6.67569C12.1457 6.57179 12.1763 6.45504 12.1769 6.33622V1.29495C12.1769 1.1073 12.1023 0.927329 11.9697 0.794638C11.837 0.661947 11.657 0.587402 11.4693 0.587402H3.53066C3.34301 0.587402 3.16304 0.661947 3.03035 0.794638C2.89766 0.927329 2.82311 1.1073 2.82311 1.29495V6.33622C2.82347 6.45587 2.85416 6.57347 2.91232 6.67803C2.97048 6.78259 3.0542 6.87069 3.15566 6.9341C3.22834 6.98368 3.31046 7.01775 3.39689 7.03418C3.48332 7.05062 3.57221 7.04906 3.65802 7.02962H3.67925C3.73687 7.01395 3.79356 6.99505 3.84906 6.97302C4.76679 6.50713 5.76659 6.22474 6.79245 6.14165V6.88457C3.39623 7.18528 0.191038 9.66169 0 14.3138C0.424528 24.2655 14.5755 24.2584 15 14.3138C14.809 9.66169 11.6038 7.18528 8.20755 6.88457Z" fill="#FDA758"/>
</svg>
